<svg xmlns="http://www.w3.org/2000/svg" xmlns:xlink="http://www.w3.org/1999/xlink" width="1024" zoomAndPan="magnify" viewBox="0 0 768 767.999994" height="1024" preserveAspectRatio="xMidYMid meet" version="1.0"><defs><clipPath id="id1"><path d="M 10 120 L 768 120 L 768 710.625 L 10 710.625 Z M 10 120 " clip-rule="nonzero"/></clipPath></defs><g clip-path="url(#id1)"><path fill="rgb(100%, 100%, 100%)" d="M 94.609375 666.589844 C 97.632812 667.609375 100.742188 668.148438 103.9375 668.203125 C 108.410156 668.203125 112.121094 666.867188 114.765625 664.222656 C 123.542969 655.441406 117.476562 635.621094 100.964844 619.101562 C 84.453125 602.582031 64.636719 596.519531 55.855469 605.296875 C 47.070312 614.074219 53.144531 633.894531 69.660156 650.410156 C 77.40625 658.164062 86.269531 663.910156 94.609375 666.589844 Z M 57.988281 607.433594 C 60.066406 605.351562 63.058594 604.375 66.617188 604.375 C 75.609375 604.375 88.214844 610.628906 98.824219 621.242188 C 113.636719 636.050781 119.957031 654.757812 112.625 662.082031 C 109.152344 665.558594 103.082031 666.140625 95.53125 663.714844 C 88.742188 661.53125 81.5625 657.167969 74.96875 651.273438 C 78.019531 653.808594 81.625 655.285156 84.898438 655.285156 C 86.066406 655.320312 87.199219 655.125 88.289062 654.703125 C 89.378906 654.277344 90.347656 653.660156 91.1875 652.84375 L 99.277344 644.753906 C 103.417969 640.609375 102.171875 632.871094 96.4375 627.136719 C 93.132812 623.832031 88.898438 621.855469 85.117188 621.855469 C 83.945312 621.820312 82.816406 622.015625 81.722656 622.441406 C 80.632812 622.863281 79.667969 623.480469 78.828125 624.296875 L 70.738281 632.390625 C 68.617188 634.507812 67.828125 637.734375 68.574219 641.238281 C 69.382812 644.609375 71.023438 647.503906 73.5 649.925781 C 72.929688 649.386719 72.355469 648.84375 71.796875 648.277344 C 56.984375 633.464844 50.664062 614.761719 57.992188 607.433594 Z M 77 633.988281 C 79.625 633.988281 82.875 635.453125 85.5 638.078125 C 87.457031 639.949219 88.761719 642.203125 89.410156 644.835938 C 89.871094 647.007812 89.492188 648.84375 88.339844 649.996094 C 87.183594 651.152344 85.359375 651.539062 83.179688 651.066406 C 80.546875 650.417969 78.296875 649.113281 76.421875 647.15625 C 72.421875 643.160156 71.121094 637.699219 73.582031 635.234375 C 74.042969 634.804688 74.574219 634.484375 75.164062 634.269531 C 75.757812 634.054688 76.371094 633.960938 77 633.992188 Z M 76.863281 631.953125 L 81.671875 627.144531 C 84.140625 624.6875 89.59375 625.984375 93.589844 629.984375 C 97.585938 633.980469 98.890625 639.441406 96.429688 641.90625 L 91.605469 646.730469 C 91.617188 645.949219 91.542969 645.179688 91.382812 644.414062 C 90.648438 641.394531 89.160156 638.808594 86.925781 636.652344 C 83.800781 633.527344 80.046875 631.886719 76.863281 631.949219 Z M 91.476562 587.035156 C 88.199219 583.753906 86.90625 579.726562 88.589844 578.042969 C 90.273438 576.359375 94.300781 577.652344 97.582031 580.933594 C 100.863281 584.21875 102.152344 588.242188 100.46875 589.925781 C 98.785156 591.613281 94.761719 590.316406 91.480469 587.035156 Z M 110.707031 690.238281 C 113.988281 693.519531 115.28125 697.542969 113.597656 699.230469 C 111.910156 700.914062 107.886719 699.621094 104.605469 696.339844 C 101.324219 693.058594 100.03125 689.035156 101.714844 687.347656 C 103.394531 685.664062 107.429688 686.957031 110.710938 690.238281 Z M 165.992188 451.699219 C 172.082031 451.699219 176.851562 448.328125 176.851562 444.027344 L 176.851562 435.773438 C 176.851562 431.46875 172.082031 428.097656 165.992188 428.097656 C 159.902344 428.097656 155.128906 431.472656 155.128906 435.773438 L 155.128906 444.027344 C 155.128906 448.328125 159.902344 451.699219 165.992188 451.699219 Z M 165.992188 431.121094 C 170.238281 431.121094 173.832031 433.25 173.832031 435.773438 C 173.832031 438.296875 170.238281 440.429688 165.992188 440.429688 C 161.742188 440.429688 158.148438 438.296875 158.148438 435.773438 C 158.148438 433.25 161.742188 431.121094 165.992188 431.121094 Z M 158.152344 439.84375 C 159.933594 441.429688 162.753906 442.441406 165.992188 442.441406 C 169.230469 442.441406 172.046875 441.429688 173.832031 439.84375 L 173.832031 444.027344 C 173.832031 446.550781 170.238281 448.679688 165.992188 448.679688 C 161.742188 448.679688 158.152344 446.550781 158.152344 444.027344 Z M 147.375 499.941406 C 151.457031 499.941406 154.65625 497.679688 154.65625 494.792969 L 154.65625 490.386719 C 154.65625 487.503906 151.457031 485.242188 147.375 485.242188 C 143.289062 485.242188 140.089844 487.503906 140.089844 490.386719 L 140.089844 494.796875 C 140.089844 497.679688 143.289062 499.9375 147.375 499.9375 Z M 147.375 487.265625 C 150.222656 487.265625 152.628906 488.695312 152.628906 490.386719 C 152.628906 492.074219 150.21875 493.503906 147.375 493.503906 C 144.527344 493.503906 142.117188 492.074219 142.117188 490.386719 C 142.117188 488.695312 144.523438 487.265625 147.375 487.265625 Z M 142.117188 493.117188 C 142.875 493.683594 143.707031 494.113281 144.605469 494.410156 C 145.503906 494.707031 146.425781 494.855469 147.375 494.855469 C 148.320312 494.855469 149.242188 494.707031 150.140625 494.410156 C 151.039062 494.113281 151.871094 493.683594 152.628906 493.117188 L 152.628906 494.792969 C 152.628906 496.484375 150.21875 497.914062 147.375 497.914062 C 144.527344 497.914062 142.117188 496.484375 142.117188 494.792969 Z M 285.179688 527.207031 C 284.628906 527.070312 284.148438 527.203125 283.742188 527.601562 L 270.0625 541.289062 C 269.867188 541.488281 269.734375 541.71875 269.667969 541.992188 C 269.601562 542.261719 269.605469 542.527344 269.6875 542.796875 C 273.113281 554.210938 274.289062 565.109375 273.175781 575.195312 C 273.140625 575.515625 273.199219 575.8125 273.355469 576.09375 C 273.511719 576.375 273.734375 576.582031 274.023438 576.71875 C 274.230469 576.820312 274.449219 576.871094 274.675781 576.871094 C 275.09375 576.871094 275.449219 576.722656 275.742188 576.429688 L 289.425781 562.746094 C 289.675781 562.496094 289.820312 562.195312 289.859375 561.84375 C 291.015625 551.347656 289.800781 540.042969 286.257812 528.242188 C 286.183594 527.988281 286.050781 527.765625 285.859375 527.582031 C 285.664062 527.398438 285.441406 527.273438 285.179688 527.207031 Z M 286.914062 560.980469 L 276.507812 571.386719 C 276.96875 562.34375 275.734375 552.746094 272.835938 542.789062 L 284.066406 531.554688 C 286.898438 541.878906 287.855469 551.761719 286.914062 560.980469 Z M 414.25 339.789062 C 413.675781 339.785156 413.125 339.894531 412.597656 340.117188 L 405.953125 342.898438 C 402.9375 344.171875 402.101562 348.53125 404.003906 353.039062 C 405.523438 356.632812 408.324219 359.046875 410.972656 359.046875 C 411.546875 359.050781 412.097656 358.941406 412.625 358.71875 L 419.265625 355.9375 C 420.859375 355.261719 421.917969 353.652344 422.164062 351.515625 C 422.339844 349.527344 422.023438 347.617188 421.214844 345.792969 C 419.699219 342.199219 416.898438 339.789062 414.25 339.789062 Z M 411.453125 355.9375 C 410.894531 356.160156 410.109375 355.945312 409.285156 355.316406 C 408.164062 354.375 407.328125 353.226562 406.785156 351.863281 C 405.980469 349.953125 405.792969 347.898438 406.308594 346.628906 C 406.445312 346.203125 406.71875 345.886719 407.121094 345.6875 L 410.785156 344.152344 C 410.753906 344.316406 410.726562 344.480469 410.707031 344.652344 C 410.546875 346.464844 410.839844 348.203125 411.582031 349.867188 C 412.308594 351.726562 413.484375 353.242188 415.105469 354.40625 Z M 418.101562 353.152344 C 416.929688 353.664062 414.714844 352.105469 413.4375 349.082031 C 412.839844 347.746094 412.59375 346.347656 412.703125 344.886719 C 412.824219 343.863281 413.214844 343.136719 413.773438 342.898438 C 413.925781 342.835938 414.085938 342.808594 414.253906 342.808594 C 414.890625 342.859375 415.453125 343.097656 415.9375 343.519531 C 417.0625 344.460938 417.894531 345.613281 418.4375 346.972656 C 419.710938 349.992188 419.285156 352.652344 418.101562 353.152344 Z M 427.527344 325.183594 L 420.882812 327.96875 C 419.289062 328.640625 418.234375 330.25 417.988281 332.390625 C 417.8125 334.378906 418.128906 336.285156 418.9375 338.113281 C 420.457031 341.707031 423.253906 344.121094 425.90625 344.121094 C 426.476562 344.121094 427.027344 344.011719 427.558594 343.789062 L 434.199219 341.003906 C 435.792969 340.332031 436.847656 338.71875 437.09375 336.582031 C 437.269531 334.59375 436.953125 332.683594 436.148438 330.859375 C 434.628906 327.265625 431.828125 324.851562 429.179688 324.851562 C 428.605469 324.847656 428.054688 324.960938 427.527344 325.183594 Z M 426.382812 341.007812 C 425.816406 341.230469 425.03125 341.011719 424.21875 340.386719 C 423.097656 339.445312 422.261719 338.292969 421.71875 336.933594 C 420.441406 333.914062 420.871094 331.25 422.050781 330.753906 L 425.726562 329.214844 C 425.417969 331.199219 425.679688 333.105469 426.511719 334.9375 C 427.1875 336.625 428.226562 338.046875 429.636719 339.199219 C 429.765625 339.300781 429.894531 339.390625 430.027344 339.480469 Z M 433.367188 332.042969 C 433.964844 333.378906 434.207031 334.777344 434.097656 336.234375 C 433.980469 337.257812 433.589844 337.984375 433.03125 338.222656 C 432.484375 338.449219 431.683594 338.234375 430.867188 337.601562 C 429.742188 336.660156 428.910156 335.511719 428.367188 334.148438 C 427.09375 331.128906 427.523438 328.464844 428.703125 327.96875 C 428.855469 327.90625 429.015625 327.875 429.183594 327.875 C 430.414062 327.871094 432.246094 329.390625 433.363281 332.039062 Z M 508.355469 247.253906 C 511.371094 245.976562 512.207031 241.617188 510.304688 237.109375 C 508.785156 233.515625 505.984375 231.101562 503.335938 231.101562 C 502.761719 231.097656 502.210938 231.207031 501.683594 231.429688 L 495.042969 234.210938 C 492.027344 235.488281 491.191406 239.84375 493.09375 244.355469 C 494.613281 247.949219 497.414062 250.363281 500.0625 250.363281 C 500.636719 250.367188 501.1875 250.253906 501.714844 250.035156 Z M 502.859375 234.210938 C 503.011719 234.148438 503.171875 234.117188 503.335938 234.121094 C 503.976562 234.171875 504.539062 234.410156 505.023438 234.832031 C 506.144531 235.773438 506.976562 236.925781 507.519531 238.285156 C 508.792969 241.304688 508.367188 243.96875 507.183594 244.46875 C 506.019531 244.957031 503.796875 243.417969 502.523438 240.398438 C 501.246094 237.378906 501.675781 234.710938 502.859375 234.210938 Z M 495.875 243.183594 C 494.601562 240.160156 495.03125 237.496094 496.203125 237 L 499.882812 235.457031 C 499.761719 236.425781 499.765625 237.394531 499.898438 238.363281 C 500.027344 239.332031 500.285156 240.265625 500.664062 241.167969 C 501.039062 242.070312 501.527344 242.90625 502.128906 243.675781 C 502.726562 244.449219 503.414062 245.128906 504.195312 245.722656 L 500.539062 247.253906 C 499.382812 247.726562 497.152344 246.203125 495.875 243.183594 Z M 386.03125 354.421875 C 386.371094 354.421875 386.664062 354.300781 386.902344 354.058594 L 430.210938 310.742188 C 430.429688 310.527344 430.550781 310.261719 430.570312 309.957031 C 430.59375 309.648438 430.511719 309.371094 430.328125 309.125 C 427.300781 305.097656 424.007812 301.300781 420.449219 297.734375 C 414.027344 291.273438 406.878906 285.753906 399 281.175781 C 398.757812 281.03125 398.5 280.980469 398.222656 281.015625 C 397.945312 281.054688 397.707031 281.171875 397.507812 281.371094 L 354.203125 324.6875 C 354.066406 324.824219 353.96875 324.984375 353.90625 325.164062 C 353.84375 325.347656 353.824219 325.535156 353.851562 325.726562 C 353.875 325.914062 353.941406 326.089844 354.046875 326.25 C 354.15625 326.410156 354.292969 326.539062 354.457031 326.632812 C 362.144531 331.101562 369.121094 336.488281 375.390625 342.792969 C 378.867188 346.28125 382.082031 349.992188 385.039062 353.929688 C 385.292969 354.25 385.621094 354.414062 386.03125 354.421875 Z M 357.082031 325.308594 L 398.585938 283.796875 C 405.949219 288.175781 412.65625 293.40625 418.699219 299.480469 C 421.921875 302.710938 424.921875 306.136719 427.703125 309.757812 L 386.15625 351.308594 C 383.367188 347.695312 380.363281 344.277344 377.136719 341.046875 C 371.097656 334.976562 364.414062 329.730469 357.082031 325.308594 Z M 767.746094 432.71875 C 767.628906 432.242188 767.40625 431.824219 767.074219 431.46875 C 766.742188 431.109375 766.34375 430.851562 765.878906 430.703125 L 490.972656 341.746094 C 492.460938 332.417969 491.574219 322.015625 488.480469 311.324219 L 503.1875 296.617188 C 506.09375 297.539062 509.003906 298.3125 511.90625 298.9375 C 517.070312 300.066406 522.292969 300.644531 527.578125 300.671875 C 529.101562 300.671875 530.597656 300.609375 532.074219 300.5 C 536.332031 301.171875 540.613281 301.511719 544.925781 301.523438 C 561.050781 301.523438 574.84375 296.382812 584.785156 286.4375 C 612.300781 258.914062 600.769531 202.59375 559.078125 160.886719 C 517.386719 119.183594 461.066406 107.648438 433.558594 135.175781 C 420.964844 147.769531 416.078125 166.539062 419.578125 188.40625 C 419.019531 197.277344 420.347656 206.902344 423.453125 216.71875 L 408.753906 231.421875 C 406.679688 230.820312 404.613281 230.296875 402.542969 229.851562 C 382.675781 225.625 365.542969 229.496094 354.296875 240.742188 L 311.40625 283.644531 L 106.738281 217.417969 C 106.234375 217.253906 105.726562 217.234375 105.210938 217.355469 C 104.699219 217.480469 104.253906 217.730469 103.882812 218.101562 L 31.242188 290.757812 C 31.070312 290.925781 30.925781 291.113281 30.804688 291.324219 C 30.679688 291.53125 30.585938 291.75 30.523438 291.984375 C 30.457031 292.214844 30.421875 292.449219 30.417969 292.691406 C 30.410156 292.933594 30.4375 293.171875 30.496094 293.40625 C 30.550781 293.640625 30.636719 293.863281 30.75 294.074219 C 30.863281 294.285156 31.003906 294.480469 31.167969 294.65625 C 31.332031 294.835938 31.515625 294.988281 31.71875 295.117188 C 31.921875 295.246094 32.136719 295.347656 32.367188 295.421875 L 235.300781 361.089844 L 227.988281 368.40625 C 223.289062 373.09375 219.183594 378.25 215.667969 383.878906 C 212.152344 389.503906 209.320312 395.457031 207.167969 401.734375 C 185.824219 398.1875 166.332031 402.457031 153.296875 415.496094 L 43.03125 525.785156 C 33.628906 535.1875 28.789062 547.949219 28.148438 562.34375 L 23.683594 566.8125 C 0.0429688 590.453125 9.871094 638.757812 45.589844 674.484375 C 62.714844 691.613281 83.195312 703.398438 103.265625 707.667969 C 108.425781 708.796875 113.648438 709.375 118.933594 709.402344 C 130.953125 709.402344 141.46875 706.066406 149.640625 699.597656 C 150.097656 701.117188 150.78125 702.523438 151.695312 703.816406 L 150.910156 704.597656 C 150.625 704.882812 150.410156 705.210938 150.253906 705.578125 C 150.101562 705.949219 150.027344 706.335938 150.027344 706.734375 C 150.027344 707.136719 150.101562 707.519531 150.253906 707.890625 C 150.410156 708.261719 150.625 708.585938 150.910156 708.871094 C 151.191406 709.152344 151.519531 709.371094 151.890625 709.523438 C 152.257812 709.679688 152.644531 709.753906 153.042969 709.753906 C 153.445312 709.753906 153.828125 709.679688 154.199219 709.523438 C 154.570312 709.371094 154.894531 709.152344 155.179688 708.871094 L 155.960938 708.085938 C 158.113281 709.664062 160.523438 710.503906 163.191406 710.597656 C 164.175781 710.628906 165.132812 710.464844 166.050781 710.109375 C 166.972656 709.75 167.789062 709.226562 168.496094 708.539062 L 175.324219 701.710938 C 178.339844 698.695312 177.960938 693.414062 174.6875 688.914062 C 178.371094 687.734375 181.867188 686.144531 185.175781 684.136719 C 188.480469 682.132812 191.507812 679.769531 194.257812 677.046875 L 304.53125 566.757812 C 317.5625 553.71875 321.832031 534.21875 318.285156 512.875 C 324.5625 510.722656 330.515625 507.886719 336.140625 504.371094 C 341.765625 500.855469 346.921875 496.75 351.609375 492.050781 L 367.015625 476.644531 C 367.914062 476.632812 368.679688 476.308594 369.3125 475.671875 L 423.113281 421.863281 L 691.5 508.710938 C 691.78125 508.804688 692.070312 508.847656 692.367188 508.847656 C 693.140625 508.847656 693.804688 508.574219 694.351562 508.023438 L 766.996094 435.367188 C 767.34375 435.019531 767.582031 434.613281 767.714844 434.140625 C 767.847656 433.667969 767.859375 433.195312 767.746094 432.71875 Z M 494.894531 295.5 L 486.132812 304.265625 C 480.652344 289.6875 471.191406 274.894531 458.144531 261.847656 C 449.804688 253.449219 440.484375 246.335938 430.183594 240.511719 L 447.375 223.320312 C 458.136719 225.945312 469.074219 232.410156 478.324219 241.664062 C 487.976562 251.316406 494.605469 262.808594 496.996094 274.023438 C 498.769531 282.371094 498.007812 289.78125 494.894531 295.5 Z M 478.765625 325.015625 L 483.882812 319.898438 C 485.265625 326.457031 485.527344 333.0625 484.671875 339.707031 L 480.609375 338.394531 C 480.355469 333.90625 479.703125 329.480469 478.652344 325.109375 C 478.691406 325.082031 478.730469 325.050781 478.765625 325.015625 Z M 477.773438 321.730469 C 474.84375 311.644531 470.503906 302.207031 464.746094 293.417969 L 470.460938 287.703125 C 476.507812 297.21875 480.773438 307.007812 483.101562 316.40625 Z M 480.535156 239.445312 C 470.714844 229.621094 459.015625 222.792969 447.507812 220.132812 C 447.40625 220.097656 447.300781 220.074219 447.195312 220.058594 C 447.003906 220.015625 446.8125 219.964844 446.621094 219.925781 C 440.5 218.625 434.816406 218.59375 429.8125 219.761719 L 432.378906 217.199219 C 434.109375 215.46875 435.957031 213.875 437.925781 212.414062 C 439.890625 210.957031 441.953125 209.648438 444.113281 208.496094 C 446.269531 207.339844 448.503906 206.351562 450.808594 205.527344 C 453.113281 204.703125 455.464844 204.050781 457.867188 203.574219 C 460.265625 203.09375 462.691406 202.796875 465.136719 202.675781 C 467.582031 202.554688 470.019531 202.617188 472.457031 202.855469 C 474.894531 203.09375 477.300781 203.511719 479.671875 204.109375 C 482.046875 204.703125 484.367188 205.46875 486.628906 206.40625 C 488.890625 207.34375 491.070312 208.441406 493.171875 209.699219 C 495.269531 210.957031 497.265625 212.363281 499.160156 213.917969 C 501.050781 215.472656 502.820312 217.15625 504.464844 218.96875 C 506.105469 220.78125 507.609375 222.707031 508.96875 224.742188 C 510.328125 226.78125 511.53125 228.90625 512.578125 231.117188 C 513.625 233.332031 514.503906 235.609375 515.214844 237.953125 C 515.925781 240.296875 516.460938 242.679688 516.820312 245.101562 C 517.179688 247.523438 517.359375 249.957031 517.359375 252.40625 C 517.355469 254.699219 517.199219 256.976562 516.886719 259.25 L 500.484375 275.648438 C 500.363281 274.894531 500.21875 274.132812 500.054688 273.363281 C 497.542969 261.570312 490.613281 249.523438 480.539062 239.445312 Z M 436.765625 205.101562 C 436.976562 196.417969 439.753906 188.75 445.335938 183.171875 C 450.996094 177.511719 458.929688 174.585938 468.28125 174.585938 C 471.957031 174.605469 475.585938 175.007812 479.175781 175.792969 C 493.46875 178.835938 508.109375 187.28125 520.398438 199.574219 C 545.617188 224.796875 552.976562 258.480469 536.800781 274.65625 C 531.222656 280.234375 523.558594 283.015625 514.878906 283.226562 C 515.753906 281.878906 516.570312 280.503906 517.328125 279.089844 C 518.082031 277.675781 518.777344 276.230469 519.414062 274.757812 C 520.046875 273.285156 520.617188 271.789062 521.125 270.269531 C 521.628906 268.746094 522.070312 267.207031 522.445312 265.648438 C 522.820312 264.089844 523.128906 262.515625 523.371094 260.929688 C 523.613281 259.347656 523.789062 257.753906 523.894531 256.152344 C 524 254.554688 524.035156 252.953125 524.003906 251.347656 C 523.976562 249.746094 523.875 248.144531 523.710938 246.550781 C 523.542969 244.957031 523.308594 243.371094 523.007812 241.796875 C 522.703125 240.222656 522.335938 238.664062 521.902344 237.117188 C 521.46875 235.574219 520.96875 234.054688 520.402344 232.550781 C 519.839844 231.050781 519.210938 229.578125 518.523438 228.128906 C 517.832031 226.683594 517.082031 225.265625 516.273438 223.882812 C 515.460938 222.5 514.59375 221.152344 513.667969 219.84375 C 512.742188 218.535156 511.765625 217.265625 510.730469 216.039062 C 509.699219 214.8125 508.613281 213.632812 507.480469 212.5 C 506.347656 211.367188 505.167969 210.28125 503.941406 209.25 C 502.714844 208.214844 501.449219 207.234375 500.140625 206.3125 C 498.828125 205.386719 497.484375 204.519531 496.101562 203.707031 C 494.714844 202.898438 493.300781 202.144531 491.855469 201.457031 C 490.40625 200.765625 488.933594 200.140625 487.433594 199.574219 C 485.933594 199.011719 484.410156 198.511719 482.867188 198.074219 C 481.324219 197.640625 479.765625 197.273438 478.191406 196.972656 C 476.617188 196.667969 475.03125 196.433594 473.4375 196.269531 C 471.84375 196.101562 470.242188 196.003906 468.640625 195.972656 C 467.039062 195.941406 465.4375 195.980469 463.835938 196.085938 C 462.238281 196.191406 460.644531 196.363281 459.058594 196.605469 C 457.476562 196.847656 455.902344 197.15625 454.34375 197.53125 C 452.785156 197.90625 451.246094 198.347656 449.726562 198.855469 C 448.203125 199.363281 446.707031 199.933594 445.234375 200.566406 C 443.761719 201.199219 442.320312 201.898438 440.90625 202.652344 C 439.492188 203.410156 438.113281 204.226562 436.769531 205.101562 Z M 502.773438 287.613281 L 500.21875 290.167969 C 501.007812 286.640625 501.246094 283.074219 500.9375 279.472656 L 515.875 264.53125 C 514.785156 268.902344 513.128906 273.046875 510.902344 276.964844 C 508.679688 280.886719 505.972656 284.433594 502.777344 287.613281 Z M 513.289062 292.425781 C 511.699219 292.089844 510.105469 291.699219 508.511719 291.257812 C 510.097656 289.589844 511.574219 287.835938 512.945312 285.988281 C 513.246094 285.996094 513.550781 286.003906 513.847656 286.003906 C 523.703125 286.003906 532.472656 282.980469 538.796875 276.65625 C 556.074219 259.375 548.714844 223.898438 522.394531 197.570312 C 509.722656 184.894531 494.582031 176.175781 479.761719 173.019531 C 464.710938 169.8125 451.78125 172.714844 443.332031 181.167969 C 436.8125 187.6875 433.800781 196.796875 433.992188 207.03125 C 432.136719 208.410156 430.371094 209.894531 428.699219 211.492188 C 423.320312 192.113281 425.699219 174.113281 437.023438 162.78125 C 444.527344 155.28125 454.949219 151.699219 466.765625 151.699219 C 488.097656 151.699219 513.949219 163.371094 535.269531 184.695312 C 551.496094 200.925781 562.636719 220.230469 566.644531 239.058594 C 570.539062 257.367188 567.175781 272.957031 557.179688 282.960938 C 547.179688 292.960938 531.59375 296.320312 513.292969 292.429688 Z M 438.261719 139.878906 C 447.171875 130.96875 459.542969 126.71875 473.558594 126.71875 C 498.757812 126.71875 529.25 140.464844 554.375 165.59375 C 593.472656 204.703125 605.003906 256.804688 580.082031 281.730469 C 573.140625 288.671875 563.9375 292.921875 553.164062 294.335938 C 556.367188 292.496094 559.277344 290.273438 561.886719 287.664062 C 573.535156 276.019531 577.539062 258.261719 573.15625 237.675781 C 568.886719 217.605469 557.105469 197.117188 539.980469 179.988281 C 504.261719 144.269531 455.976562 134.429688 432.328125 158.078125 C 429.699219 160.707031 427.472656 163.640625 425.648438 166.878906 C 427.050781 156.070312 431.304688 146.839844 438.261719 139.878906 Z M 424.503906 225.082031 C 429.726562 222.234375 436.359375 221.359375 443.832031 222.585938 L 427.410156 239.011719 C 423.648438 237.035156 419.777344 235.289062 415.804688 233.78125 Z M 401.160156 236.363281 C 419.265625 240.21875 437.832031 250.9375 453.441406 266.550781 C 459.148438 272.246094 464.261719 278.433594 468.773438 285.113281 L 463.046875 290.84375 C 458.496094 284.191406 453.367188 278.019531 447.664062 272.328125 C 431.402344 256.0625 411.976562 244.875 392.96875 240.828125 C 382.597656 238.621094 373.015625 238.679688 364.691406 240.890625 C 374.078125 234.917969 386.742188 233.292969 401.160156 236.363281 Z M 357.699219 246.75 C 367.070312 242.015625 378.996094 240.941406 392.339844 243.785156 C 410.785156 247.707031 429.671875 258.601562 445.527344 274.464844 C 464.980469 293.925781 476.1875 317.292969 477.597656 337.417969 L 470.402344 335.089844 C 469.195312 329.671875 467.511719 324.40625 465.351562 319.292969 C 465.390625 318.828125 465.246094 318.433594 464.921875 318.101562 C 464.882812 318.066406 464.84375 318.035156 464.800781 318.003906 C 459.226562 305.199219 450.566406 292.371094 439.09375 280.894531 C 422.832031 264.632812 403.40625 253.445312 384.398438 249.398438 C 381.585938 248.796875 378.753906 248.359375 375.890625 248.078125 C 375.632812 247.980469 375.363281 247.957031 375.09375 248.007812 C 368.117188 247.324219 361.265625 247.957031 354.535156 249.910156 Z M 291.226562 346.320312 C 305.777344 349.414062 320.625 356.953125 333.996094 367.894531 L 326.050781 375.839844 C 311.988281 364.246094 296.28125 356.253906 280.851562 352.96875 C 270.589844 350.785156 261.101562 350.816406 252.839844 352.957031 L 255.265625 350.527344 C 264.601562 344.816406 277.0625 343.304688 291.226562 346.320312 Z M 264.9375 339.53125 L 272.128906 332.335938 C 278.617188 329.058594 286.328125 327.535156 294.882812 327.851562 L 284.246094 338.496094 C 277.753906 337.773438 271.316406 338.117188 264.9375 339.53125 Z M 336.320312 369.839844 C 338.773438 371.949219 341.171875 374.171875 343.507812 376.507812 C 351.890625 384.828125 358.914062 394.171875 364.574219 404.539062 L 356.722656 412.394531 C 350.972656 402.09375 343.914062 392.785156 335.546875 384.46875 C 333.214844 382.136719 330.820312 379.914062 328.367188 377.796875 Z M 348.210938 371.800781 C 331.703125 355.289062 311.957031 343.929688 292.609375 339.808594 C 291.070312 339.480469 289.546875 339.207031 288.039062 338.976562 L 298.886719 328.128906 C 301.535156 328.398438 304.164062 328.8125 306.769531 329.371094 C 325.214844 333.292969 344.105469 344.191406 359.960938 360.050781 C 364.929688 365.015625 369.460938 370.355469 373.550781 376.066406 L 361.835938 387.785156 C 357.722656 382.09375 353.179688 376.765625 348.210938 371.800781 Z M 362.097656 357.914062 C 345.835938 341.648438 326.410156 330.460938 307.402344 326.414062 C 305.4375 325.996094 303.507812 325.660156 301.605469 325.40625 L 375.882812 251.113281 C 395.570312 253.0625 418.101562 264.175781 436.957031 283.035156 C 448.085938 294.164062 456.515625 306.574219 461.957031 318.925781 L 387.15625 393.554688 C 384.324219 387.351562 380.964844 381.449219 377.078125 375.847656 C 377.066406 375.582031 376.984375 375.339844 376.832031 375.121094 C 376.679688 374.902344 376.480469 374.742188 376.238281 374.636719 C 371.996094 368.664062 367.28125 363.089844 362.097656 357.914062 Z M 463.21875 321.933594 C 464.8125 325.871094 466.113281 329.90625 467.128906 334.03125 L 466.261719 333.75 C 465.757812 333.585938 465.25 333.566406 464.738281 333.691406 C 464.222656 333.8125 463.78125 334.0625 463.40625 334.4375 L 391.839844 406.027344 C 390.875 402.800781 389.742188 399.636719 388.445312 396.53125 Z M 349.113281 255.335938 C 355.71875 252.007812 363.484375 250.550781 371.875 250.847656 L 297.746094 324.992188 C 290.890625 324.359375 284.15625 325 277.542969 326.921875 Z M 38.472656 291.484375 L 106.644531 223.296875 L 162.054688 241.230469 L 93.882812 309.414062 Z M 96.886719 310.386719 L 165.066406 242.203125 L 221.980469 260.617188 L 153.804688 328.804688 Z M 156.8125 329.777344 L 224.984375 261.589844 L 281.898438 280.007812 L 213.726562 348.195312 Z M 216.734375 349.167969 L 284.90625 280.980469 L 306.941406 288.109375 L 244.363281 350.699219 C 243.730469 351.332031 243.40625 352.097656 243.394531 352.996094 L 239.769531 356.621094 Z M 153.859375 424.347656 C 173.226562 413.832031 201.214844 416.972656 228.300781 431.703125 L 202.453125 457.554688 C 202.128906 457.6875 201.882812 457.902344 201.710938 458.207031 C 201.683594 458.261719 201.660156 458.3125 201.640625 458.371094 L 195.003906 465.003906 C 194.679688 465.136719 194.433594 465.355469 194.261719 465.660156 C 194.234375 465.710938 194.210938 465.765625 194.191406 465.820312 L 187.554688 472.457031 C 187.230469 472.585938 186.984375 472.804688 186.8125 473.109375 C 186.785156 473.160156 186.761719 473.214844 186.742188 473.269531 L 182.300781 477.714844 C 172.121094 471.988281 161.328125 467.863281 149.929688 465.332031 C 135.613281 462.289062 122.542969 462.796875 111.554688 466.65625 Z M 193.109375 548.101562 L 224.359375 516.847656 C 242.914062 539.304688 253.125 564.546875 253.617188 586.273438 C 253.59375 586.292969 253.570312 586.308594 253.546875 586.328125 L 223.132812 616.75 C 222.851562 612.296875 222.242188 607.890625 221.304688 603.53125 C 217.273438 584.601562 207.414062 565.324219 193.109375 548.101562 Z M 208.113281 576.046875 L 195.949219 588.214844 C 188.644531 574.609375 179.515625 562.371094 168.550781 551.5 C 148.535156 531.476562 124.601562 517.703125 101.15625 512.714844 C 97.542969 511.9375 93.894531 511.375 90.214844 511.035156 L 101.402344 499.839844 C 106.289062 500.042969 111.121094 500.65625 115.902344 501.691406 C 138.4375 506.488281 161.515625 519.796875 180.878906 539.167969 C 191.867188 550.050781 200.945312 562.34375 208.113281 576.046875 Z M 216.414062 503.625 C 207 494.152344 196.535156 486.03125 185.023438 479.261719 L 188.492188 475.796875 C 200.058594 482.492188 210.546875 490.585938 219.964844 500.070312 C 231.765625 511.871094 241.5625 525.429688 248.367188 539.332031 L 244.90625 542.792969 C 237.53125 528.195312 228.03125 515.140625 216.414062 503.625 Z M 222.105469 497.9375 C 212.691406 488.460938 202.222656 480.34375 190.703125 473.585938 L 195.941406 468.34375 C 207.507812 475.042969 218 483.132812 227.417969 492.617188 C 239.21875 504.425781 249.015625 517.980469 255.820312 531.886719 L 250.625 537.078125 C 243.210938 522.507812 233.707031 509.460938 222.105469 497.941406 Z M 229.554688 490.480469 C 220.140625 481.007812 209.671875 472.890625 198.152344 466.132812 L 203.390625 460.890625 C 214.957031 467.589844 225.449219 475.679688 234.867188 485.164062 C 246.667969 496.972656 256.464844 510.527344 263.269531 524.429688 L 258.074219 529.625 C 250.660156 515.050781 241.15625 502.003906 229.554688 490.484375 Z M 237.003906 483.03125 C 227.589844 473.554688 217.121094 465.4375 205.601562 458.679688 L 231.042969 433.234375 C 242.605469 439.9375 253.101562 448.027344 262.523438 457.511719 C 274.515625 469.503906 284.179688 482.921875 290.945312 496.753906 L 265.523438 522.179688 C 258.109375 507.605469 248.601562 494.554688 237.003906 483.03125 Z M 105.613281 472.601562 C 133.453125 457.480469 179.105469 470.582031 214.277344 505.765625 C 217.132812 508.621094 219.839844 511.542969 222.398438 514.53125 L 191.148438 545.789062 C 188.570312 542.800781 185.859375 539.878906 183.019531 537.03125 C 163.246094 517.253906 139.632812 503.660156 116.53125 498.738281 C 102.21875 495.691406 89.148438 496.199219 78.160156 500.058594 Z M 72.246094 505.972656 C 79.394531 502.089844 87.816406 500.011719 97.160156 499.8125 L 86.207031 510.769531 C 79.085938 510.402344 72.082031 511.152344 65.199219 513.023438 Z M 131.335938 588.722656 C 104.179688 561.5625 69.753906 549.371094 44.417969 555.484375 L 50.152344 549.742188 C 71.203125 528.703125 115.273438 538.523438 148.398438 571.65625 C 164.625 587.886719 175.765625 607.195312 179.773438 626.023438 C 183.667969 644.328125 180.308594 659.921875 170.308594 669.921875 L 164.574219 675.65625 C 170.679688 650.316406 158.496094 615.886719 131.335938 588.722656 Z M 58.128906 560.433594 C 79.101562 560.433594 104.445312 571.722656 125.554688 592.371094 L 109.484375 608.441406 C 98.636719 597.90625 86.074219 590.394531 73.96875 587.246094 C 72.125 586.765625 70.265625 586.390625 68.382812 586.117188 L 68.742188 585.75 C 72.886719 581.609375 71.640625 573.871094 65.902344 568.136719 C 62.597656 564.828125 58.367188 562.855469 54.582031 562.855469 C 53.410156 562.820312 52.28125 563.015625 51.1875 563.4375 C 50.097656 563.859375 49.132812 564.480469 48.292969 565.296875 L 40.203125 573.386719 C 39.496094 574.117188 38.933594 574.949219 38.523438 575.882812 C 38.113281 576.8125 37.875 577.785156 37.808594 578.800781 L 29.488281 570.476562 C 36.890625 563.6875 46.878906 560.433594 58.128906 560.433594 Z M 111.621094 610.582031 L 120.105469 602.09375 C 146.441406 629.09375 155.316406 663.464844 140.867188 681.878906 L 130.949219 671.960938 C 139.371094 656.945312 131.609375 631.1875 111.621094 610.582031 Z M 46.488281 574.972656 C 47.070312 574.976562 47.644531 575.039062 48.210938 575.164062 C 50.84375 575.8125 53.09375 577.117188 54.96875 579.078125 C 56.925781 580.949219 58.230469 583.203125 58.878906 585.835938 C 59.34375 588.007812 58.964844 589.84375 57.808594 590.996094 C 55.351562 593.460938 49.890625 592.160156 45.890625 588.15625 C 41.886719 584.152344 40.589844 578.699219 43.050781 576.234375 C 43.515625 575.800781 44.046875 575.476562 44.640625 575.257812 C 45.238281 575.039062 45.851562 574.945312 46.488281 574.972656 Z M 46.316406 572.96875 L 51.140625 568.144531 C 53.605469 565.6875 59.066406 566.980469 63.0625 570.984375 C 67.054688 574.984375 68.359375 580.441406 65.898438 582.90625 L 61.074219 587.730469 C 61.089844 586.949219 61.011719 586.175781 60.847656 585.414062 C 60.113281 582.394531 58.628906 579.808594 56.390625 577.652344 C 54.238281 575.414062 51.652344 573.929688 48.632812 573.195312 C 47.871094 573.03125 47.097656 572.957031 46.316406 572.96875 Z M 43.042969 591.003906 C 43.386719 591.347656 43.742188 591.675781 44.105469 591.988281 C 43.832031 592.234375 43.558594 592.472656 43.296875 592.734375 C 29.582031 606.453125 36.671875 635.914062 59 658.9375 L 54.097656 663.839844 C 40.855469 650.257812 31.644531 634.363281 28.089844 618.929688 C 24.476562 603.25 27.152344 589.945312 35.625 581.472656 C 35.71875 581.375 35.824219 581.285156 35.925781 581.191406 L 38.457031 583.722656 C 39.414062 586.511719 40.941406 588.9375 43.042969 591.003906 Z M 46.144531 595.582031 C 46.574219 595.152344 47.03125 594.746094 47.503906 594.359375 C 49.628906 595.582031 51.917969 596.222656 54.367188 596.285156 C 55.539062 596.320312 56.667969 596.125 57.761719 595.703125 C 58.851562 595.277344 59.816406 594.660156 60.65625 593.84375 L 64.742188 589.757812 C 67.523438 589.964844 70.261719 590.425781 72.957031 591.144531 C 84.785156 594.222656 97.128906 601.75 107.722656 612.34375 C 129.320312 633.945312 136.835938 661.578125 124.480469 673.9375 C 112.125 686.296875 84.496094 678.777344 62.898438 657.175781 C 41.304688 635.574219 33.785156 607.945312 46.144531 595.582031 Z M 27.34375 572.609375 L 34.554688 579.820312 C 34.457031 579.917969 34.351562 580.007812 34.253906 580.105469 C 25.296875 589.066406 22.433594 603.007812 26.203125 619.363281 C 29.839844 635.148438 39.238281 651.375 52.730469 665.207031 L 49.238281 668.699219 C 17.515625 636.261719 7.898438 593.824219 27.34375 572.609375 Z M 104.648438 701.160156 C 86.238281 697.246094 67.371094 686.492188 51.371094 670.839844 L 61.128906 661.082031 C 76.191406 675.699219 94.007812 683.78125 108.371094 683.78125 C 115.960938 683.78125 122.585938 681.527344 127.324219 676.785156 C 128.019531 676.082031 128.660156 675.335938 129.253906 674.542969 L 147.441406 692.738281 C 137.421875 701.917969 122.296875 704.917969 104.648438 701.160156 Z M 149.585938 690.601562 L 142.242188 683.253906 C 157.484375 664.117188 148.578125 628.511719 121.476562 600.726562 L 127.691406 594.507812 C 159.410156 626.945312 169.027344 669.382812 149.585938 690.597656 Z M 166.097656 706.140625 C 165.132812 707.113281 163.578125 707.441406 161.742188 707.042969 C 160.550781 706.769531 159.441406 706.304688 158.414062 705.640625 L 160.144531 703.910156 C 160.429688 703.625 160.644531 703.300781 160.796875 702.929688 C 160.953125 702.558594 161.027344 702.175781 161.027344 701.773438 C 161.027344 701.375 160.949219 700.988281 160.796875 700.621094 C 160.644531 700.25 160.425781 699.921875 160.144531 699.640625 C 159.859375 699.355469 159.535156 699.140625 159.164062 698.984375 C 158.792969 698.832031 158.410156 698.757812 158.007812 698.753906 C 157.609375 698.753906 157.222656 698.832031 156.855469 698.984375 C 156.484375 699.136719 156.160156 699.355469 155.875 699.640625 L 154.152344 701.359375 C 152.347656 698.453125 152.027344 695.304688 153.644531 693.6875 C 154.460938 692.929688 155.421875 692.582031 156.53125 692.632812 C 158.742188 692.632812 161.488281 693.867188 163.699219 696.082031 C 167.078125 699.453125 168.171875 704.058594 166.097656 706.136719 Z M 172.925781 699.308594 L 168.871094 703.363281 C 168.925781 700.679688 167.542969 697.515625 164.902344 694.875 C 162.265625 692.234375 159.101562 690.851562 156.417969 690.910156 L 160.472656 686.855469 C 161.445312 685.886719 163.003906 685.566406 164.828125 685.949219 C 167.046875 686.496094 168.949219 687.597656 170.527344 689.25 C 173.902344 692.625 175 697.230469 172.925781 699.308594 Z M 189.558594 672.339844 C 183.972656 677.929688 176.921875 681.777344 168.769531 683.800781 C 168.101562 683.460938 167.410156 683.175781 166.695312 682.945312 L 175.015625 674.625 C 186.660156 662.976562 190.664062 645.222656 186.28125 624.636719 C 182.011719 604.566406 170.230469 584.078125 153.105469 566.949219 C 117.386719 531.226562 69.105469 521.386719 45.449219 545.039062 L 35.488281 555 C 37.167969 545.445312 41.195312 537.03125 47.734375 530.492188 C 56.394531 521.828125 68.5625 517.355469 82.925781 517.355469 C 88.605469 517.386719 94.222656 518.007812 99.773438 519.222656 C 121.972656 523.945312 144.726562 537.078125 163.847656 556.207031 C 182.964844 575.335938 196.097656 598.089844 200.824219 620.292969 C 205.4375 641.976562 201.433594 660.464844 189.558594 672.339844 Z M 207.015625 654.878906 C 209.984375 644.320312 210.140625 632.121094 207.328125 618.910156 C 205.199219 609.199219 201.886719 599.914062 197.398438 591.046875 L 209.539062 578.902344 C 213.492188 586.964844 216.429688 595.386719 218.351562 604.164062 C 221.953125 621.089844 220.410156 636.15625 214.070312 647.824219 Z M 219.980469 641.910156 C 222.300781 635.09375 223.398438 628.085938 223.273438 620.886719 L 253.578125 590.574219 C 253.242188 599.359375 251.230469 607.464844 247.433594 614.453125 Z M 253.292969 608.597656 C 259.496094 590.855469 256.804688 568.195312 246.296875 545.6875 L 292.316406 499.660156 C 295.710938 506.992188 298.269531 514.605469 299.988281 522.503906 C 303.589844 539.4375 302.046875 554.503906 295.707031 566.175781 Z M 301.695312 560.046875 C 305.492188 549.097656 305.972656 536.097656 302.945312 521.875 C 301.058594 513.234375 298.207031 504.929688 294.386719 496.953125 C 294.386719 496.535156 294.242188 496.179688 293.945312 495.886719 C 293.914062 495.851562 293.875 495.824219 293.839844 495.800781 C 286.921875 481.53125 276.992188 467.707031 264.660156 455.371094 C 254.828125 445.476562 243.855469 437.082031 231.738281 430.183594 C 231.597656 430.070312 231.441406 429.984375 231.273438 429.925781 C 206.097656 415.851562 179.898438 411.515625 159.902344 418.425781 C 185.5 395.871094 235.976562 407.773438 274.109375 445.917969 C 312.191406 484.003906 324.121094 534.410156 301.695312 560.042969 Z M 278.816406 441.210938 C 259.914062 422.304688 238.011719 409.597656 217.144531 403.921875 C 235.59375 389.597656 269.914062 398.070312 295.933594 424.089844 C 321.953125 450.109375 330.425781 484.449219 316.097656 502.898438 C 310.421875 482.027344 297.71875 460.117188 278.816406 441.210938 Z M 352.269531 481.980469 L 346.902344 487.347656 C 342.679688 491.582031 338.039062 495.296875 332.988281 498.492188 C 327.933594 501.6875 322.589844 504.289062 316.957031 506.289062 C 316.929688 506.183594 316.90625 506.078125 316.878906 505.972656 C 333.648438 486.886719 325.386719 449.914062 297.75 422.277344 C 270.113281 394.636719 233.15625 386.375 214.074219 403.140625 L 213.699219 403.050781 C 215.714844 397.417969 218.324219 392.074219 221.527344 387.023438 C 224.730469 381.972656 228.453125 377.335938 232.691406 373.113281 L 238.042969 367.761719 C 260.609375 356.4375 296.824219 367.167969 324.835938 395.1875 C 340.511719 410.867188 351.289062 429.546875 355.167969 447.789062 C 357.96875 460.957031 356.917969 472.722656 352.269531 481.980469 Z M 362.238281 472.007812 L 357.644531 476.601562 C 360.230469 468.03125 360.433594 458.03125 358.121094 447.160156 C 354.121094 428.351562 343.058594 409.136719 326.972656 393.046875 C 300.621094 366.691406 267.070312 355.316406 243.339844 362.457031 L 248.039062 357.757812 C 257.003906 354.003906 268.015625 353.328125 280.21875 355.925781 C 298.664062 359.851562 317.554688 370.746094 333.40625 386.609375 C 360.769531 413.972656 371.820312 449.070312 362.238281 472.007812 Z M 369.511719 464.734375 L 366.960938 467.285156 C 370.855469 452.195312 367.660156 433.476562 358.210938 415.175781 L 366.035156 407.351562 C 376.714844 428.648438 378.410156 450.179688 369.511719 464.734375 Z M 387.65625 447.917969 L 380.351562 455.222656 C 384.742188 436.269531 378.628906 412.148438 363.484375 390.121094 L 375.183594 378.417969 C 391.828125 402.914062 396.789062 429.785156 387.65625 447.917969 Z M 392.988281 442.582031 C 395.71875 433.582031 395.808594 423.171875 393.441406 412.265625 L 416 419.566406 Z M 398 407.824219 L 466.171875 339.632812 L 521.589844 357.566406 L 453.410156 425.753906 Z M 456.417969 426.726562 L 524.59375 358.539062 L 581.507812 376.957031 L 513.332031 445.148438 Z M 516.339844 446.117188 L 584.511719 377.929688 L 641.425781 396.347656 L 573.25 464.535156 Z M 576.261719 465.507812 L 644.4375 397.320312 L 701.351562 415.738281 L 633.175781 483.921875 Z M 691.59375 502.828125 L 636.183594 484.898438 L 704.355469 416.710938 L 759.765625 434.640625 Z M 691.59375 502.828125 " fill-opacity="1" fill-rule="nonzero"/></g></svg>